<?xml version="1.0" encoding="UTF-8"?>
<svg xmlns="http://www.w3.org/2000/svg" xmlns:xlink="http://www.w3.org/1999/xlink" width="375pt" height="374.999991pt" viewBox="0 0 375 374.999991" version="1.2">
<defs>
<clipPath id="clip1">
  <path d="M 240 72 L 366 72 L 366 303 L 240 303 Z M 240 72 "/>
</clipPath>
<clipPath id="clip2">
  <path d="M 187.5 -62.351562 L 437.285156 187.433594 L 187.5 437.21875 L -62.285156 187.433594 Z M 187.5 -62.351562 "/>
</clipPath>
<clipPath id="clip3">
  <path d="M 187.5 -62.351562 L 437.285156 187.433594 L 187.5 437.21875 L -62.285156 187.433594 Z M 187.5 -62.351562 "/>
</clipPath>
<clipPath id="clip4">
  <path d="M 72 9 L 303 9 L 303 135 L 72 135 Z M 72 9 "/>
</clipPath>
<clipPath id="clip5">
  <path d="M 187.5 -62.351562 L 437.285156 187.433594 L 187.5 437.21875 L -62.285156 187.433594 Z M 187.5 -62.351562 "/>
</clipPath>
<clipPath id="clip6">
  <path d="M 187.5 -62.351562 L 437.285156 187.433594 L 187.5 437.21875 L -62.285156 187.433594 Z M 187.5 -62.351562 "/>
</clipPath>
<clipPath id="clip7">
  <path d="M 10 72 L 135 72 L 135 303 L 10 303 Z M 10 72 "/>
</clipPath>
<clipPath id="clip8">
  <path d="M 187.5 -62.351562 L 437.285156 187.433594 L 187.5 437.21875 L -62.285156 187.433594 Z M 187.5 -62.351562 "/>
</clipPath>
<clipPath id="clip9">
  <path d="M 187.5 -62.351562 L 437.285156 187.433594 L 187.5 437.21875 L -62.285156 187.433594 Z M 187.5 -62.351562 "/>
</clipPath>
<clipPath id="clip10">
  <path d="M 72 240 L 303 240 L 303 366 L 72 366 Z M 72 240 "/>
</clipPath>
<clipPath id="clip11">
  <path d="M 187.5 -62.351562 L 437.285156 187.433594 L 187.5 437.21875 L -62.285156 187.433594 Z M 187.5 -62.351562 "/>
</clipPath>
<clipPath id="clip12">
  <path d="M 187.5 -62.351562 L 437.285156 187.433594 L 187.5 437.21875 L -62.285156 187.433594 Z M 187.5 -62.351562 "/>
</clipPath>
<clipPath id="clip13">
  <path d="M 145 145 L 230 145 L 230 230 L 145 230 Z M 145 145 "/>
</clipPath>
<clipPath id="clip14">
  <path d="M 187.5 -62.351562 L 437.285156 187.433594 L 187.5 437.21875 L -62.285156 187.433594 Z M 187.5 -62.351562 "/>
</clipPath>
<clipPath id="clip15">
  <path d="M 187.5 -62.351562 L 437.285156 187.433594 L 187.5 437.21875 L -62.285156 187.433594 Z M 187.5 -62.351562 "/>
</clipPath>
</defs>
<g id="surface1">
<g clip-path="url(#clip1)" clip-rule="nonzero">
<g clip-path="url(#clip2)" clip-rule="nonzero">
<g clip-path="url(#clip3)" clip-rule="nonzero">
<path style=" stroke:none;fill-rule:nonzero;fill:rgb(20.779419%,71.759033%,16.079712%);fill-opacity:1;" d="M 240.703125 148.21875 L 240.703125 226.316406 C 240.703125 230.0625 242.203125 233.644531 244.867188 236.308594 L 306.730469 298.171875 C 312.726562 304.167969 322.59375 303.542969 327.835938 296.882812 C 378.253906 232.726562 378.210938 141.847656 327.796875 77.609375 C 322.550781 70.949219 312.683594 70.324219 306.6875 76.320312 L 244.824219 138.183594 C 242.203125 140.890625 240.703125 144.46875 240.703125 148.21875 Z M 240.703125 148.21875 "/>
</g>
</g>
</g>
<g clip-path="url(#clip4)" clip-rule="nonzero">
<g clip-path="url(#clip5)" clip-rule="nonzero">
<g clip-path="url(#clip6)" clip-rule="nonzero">
<path style=" stroke:none;fill-rule:nonzero;fill:rgb(100%,74.119568%,29.019165%);fill-opacity:1;" d="M 148.78125 134.394531 L 226.882812 134.394531 C 230.628906 134.394531 234.210938 132.898438 236.875 130.230469 L 298.738281 68.367188 C 304.730469 62.375 304.109375 52.507812 297.445312 47.261719 C 233.25 -3.113281 142.371094 -3.152344 78.175781 47.304688 C 71.515625 52.550781 70.890625 62.414062 76.886719 68.410156 L 138.75 130.273438 C 141.457031 132.898438 145.035156 134.394531 148.78125 134.394531 Z M 148.78125 134.394531 "/>
</g>
</g>
</g>
<g clip-path="url(#clip7)" clip-rule="nonzero">
<g clip-path="url(#clip8)" clip-rule="nonzero">
<g clip-path="url(#clip9)" clip-rule="nonzero">
<path style=" stroke:none;fill-rule:nonzero;fill:rgb(32.159424%,44.309998%,100%);fill-opacity:1;" d="M 134.960938 226.316406 L 134.960938 148.21875 C 134.960938 144.46875 133.460938 140.890625 130.796875 138.226562 L 68.933594 76.363281 C 62.941406 70.367188 53.074219 70.992188 47.828125 77.652344 C -2.585938 141.890625 -2.585938 232.726562 47.828125 296.964844 C 53.074219 303.625 62.941406 304.25 68.933594 298.253906 L 130.839844 236.347656 C 133.460938 233.644531 134.960938 230.0625 134.960938 226.316406 Z M 134.960938 226.316406 "/>
</g>
</g>
</g>
<g clip-path="url(#clip10)" clip-rule="nonzero">
<g clip-path="url(#clip11)" clip-rule="nonzero">
<g clip-path="url(#clip12)" clip-rule="nonzero">
<path style=" stroke:none;fill-rule:nonzero;fill:rgb(100%,36.079407%,36.079407%);fill-opacity:1;" d="M 226.882812 240.136719 L 148.78125 240.136719 C 145.035156 240.136719 141.457031 241.636719 138.792969 244.300781 L 76.929688 306.164062 C 70.933594 312.160156 71.558594 322.027344 78.21875 327.273438 C 142.371094 377.6875 233.292969 377.6875 297.445312 327.273438 C 304.109375 322.027344 304.730469 312.160156 298.738281 306.164062 L 236.875 244.300781 C 234.210938 241.636719 230.628906 240.136719 226.882812 240.136719 Z M 226.882812 240.136719 "/>
</g>
</g>
</g>
<g clip-path="url(#clip13)" clip-rule="nonzero">
<g clip-path="url(#clip14)" clip-rule="nonzero">
<g clip-path="url(#clip15)" clip-rule="nonzero">
<path style=" stroke:none;fill-rule:nonzero;fill:rgb(85.099792%,85.099792%,85.099792%);fill-opacity:1;" d="M 145.910156 215.035156 L 145.910156 159.5 C 145.910156 151.671875 152.195312 145.386719 160.023438 145.386719 L 215.558594 145.386719 C 223.386719 145.386719 229.671875 151.671875 229.671875 159.5 L 229.671875 215.035156 C 229.671875 222.859375 223.386719 229.148438 215.558594 229.148438 L 160.023438 229.148438 C 152.28125 229.148438 145.953125 222.820312 145.910156 215.035156 Z M 145.910156 215.035156 "/>
</g>
</g>
</g>
</g>
</svg>
