<?xml version="1.0" encoding="UTF-8"?>
<!DOCTYPE svg PUBLIC "-//W3C//DTD SVG 1.1//EN" "http://www.w3.org/Graphics/SVG/1.1/DTD/svg11.dtd">
<!-- Creator: CorelDRAW 2019 (64-Bit) -->
<svg xmlns="http://www.w3.org/2000/svg" xml:space="preserve" width="162.56mm" height="91.44mm" version="1.1" style="shape-rendering:geometricPrecision; text-rendering:geometricPrecision; image-rendering:optimizeQuality; fill-rule:evenodd; clip-rule:evenodd"
viewBox="0 0 16256 9144"
 xmlns:xlink="http://www.w3.org/1999/xlink"
 xmlns:xodm="http://www.corel.com/coreldraw/odm/2003">
 <defs>
  <style type="text/css">
   <![CDATA[
    .fil0 {fill:#0076D6}
    .fil41 {fill:#00863F}
    .fil37 {fill:#008A5A}
    .fil38 {fill:#009550}
    .fil39 {fill:#00983E}
    .fil40 {fill:#009A37}
    .fil9 {fill:#02E202}
    .fil7 {fill:#038E01}
    .fil10 {fill:#03FD44}
    .fil13 {fill:#0413F4}
    .fil42 {fill:#06CBF6}
    .fil15 {fill:#0CF7F5}
    .fil8 {fill:#16BAF6}
    .fil27 {fill:#1983C6}
    .fil34 {fill:#1D003F}
    .fil4 {fill:#202020}
    .fil19 {fill:#2997CA}
    .fil36 {fill:#2AC64B}
    .fil28 {fill:#2FA8DF}
    .fil33 {fill:#3AADA2}
    .fil31 {fill:#45A848}
    .fil20 {fill:#4ECE02}
    .fil17 {fill:#57625F}
    .fil22 {fill:#59A2A1}
    .fil44 {fill:#666565}
    .fil30 {fill:#66C6BD}
    .fil56 {fill:#73A1FA}
    .fil29 {fill:#7AB742}
    .fil48 {fill:#97CC1A}
    .fil21 {fill:#A7D75F}
    .fil24 {fill:#B33C44}
    .fil32 {fill:#BBD331}
    .fil2 {fill:#C80016}
    .fil18 {fill:#D2FA15}
    .fil35 {fill:#D392FE}
    .fil26 {fill:#D67E86}
    .fil55 {fill:#DB380E}
    .fil23 {fill:#DE2624}
    .fil25 {fill:#DFA3A6}
    .fil16 {fill:#F1F9F2}
    .fil11 {fill:#F7FA04}
    .fil12 {fill:#FB6904}
    .fil14 {fill:#FBC906}
    .fil1 {fill:#FF6309}
    .fil3 {fill:#FFB515}
    .fil6 {fill:#FFCD00}
    .fil5 {fill:white}
    .fil52 {fill:url(#id2)}
    .fil47 {fill:url(#id3)}
    .fil49 {fill:url(#id4)}
    .fil45 {fill:url(#id5)}
    .fil53 {fill:url(#id6)}
    .fil43 {fill:url(#id7)}
    .fil46 {fill:url(#id8)}
    .fil50 {fill:url(#id9)}
    .fil54 {fill:url(#id10)}
    .fil51 {fill:url(#id11)}
   ]]>
  </style>
    <clipPath id="id0">
     <rect x="14105.48" y="258.05" width="1862.67" height="1816.28"/>
    </clipPath>
    <clipPath id="id1">
     <rect x="14105.47" y="7004.93" width="1862.68" height="1817.34"/>
    </clipPath>
  <linearGradient id="id2" gradientUnits="userSpaceOnUse" x1="8372.13" y1="8275.64" x2="8028.62" y2="7697.45">
   <stop offset="0" style="stop-opacity:1; stop-color:#E1282B"/>
   <stop offset="0.388235" style="stop-opacity:1; stop-color:#E3402A"/>
   <stop offset="0.701961" style="stop-opacity:1; stop-color:#E76226"/>
   <stop offset="1" style="stop-opacity:1; stop-color:#F19A0A"/>
  </linearGradient>
  <linearGradient id="id3" gradientUnits="userSpaceOnUse" x1="8142.31" y1="7797.16" x2="7864.45" y2="7110.14">
   <stop offset="0" style="stop-opacity:1; stop-color:#CB1918"/>
   <stop offset="0.388235" style="stop-opacity:1; stop-color:#A2183D"/>
   <stop offset="0.74902" style="stop-opacity:1; stop-color:#902869"/>
   <stop offset="1" style="stop-opacity:1; stop-color:#73358A"/>
  </linearGradient>
  <linearGradient id="id4" gradientUnits="userSpaceOnUse" x1="8694.36" y1="7391.63" x2="8291.88" y2="7831.81">
   <stop offset="0" style="stop-opacity:1; stop-color:#ADD816"/>
   <stop offset="1" style="stop-opacity:1; stop-color:#DBD704"/>
  </linearGradient>
  <linearGradient id="id5" gradientUnits="userSpaceOnUse" xlink:href="#id3" x1="7897.29" y1="7896.27" x2="7619.44" y2="7209.24">
  </linearGradient>
  <linearGradient id="id6" gradientUnits="userSpaceOnUse" xlink:href="#id2" x1="8183.05" y1="8388.12" x2="7839.53" y2="7809.32">
  </linearGradient>
  <linearGradient id="id7" gradientUnits="userSpaceOnUse" x1="7810.35" y1="6241.94" x2="8939.37" y2="6276.59">
   <stop offset="0" style="stop-opacity:1; stop-color:#0288F7"/>
   <stop offset="1" style="stop-opacity:1; stop-color:#2EE2BD"/>
  </linearGradient>
  <linearGradient id="id8" gradientUnits="userSpaceOnUse" xlink:href="#id3" x1="7756.85" y1="7952.8" x2="7479" y2="7266.39">
  </linearGradient>
  <linearGradient id="id9" gradientUnits="userSpaceOnUse" xlink:href="#id2" x1="8408.6" y1="8254.36" x2="8065.1" y2="7675.55">
  </linearGradient>
  <linearGradient id="id10" gradientUnits="userSpaceOnUse" xlink:href="#id2" x1="8119.21" y1="8425.2" x2="7776.3" y2="7847.02">
  </linearGradient>
  <linearGradient id="id11" gradientUnits="userSpaceOnUse" xlink:href="#id2" x1="8430.49" y1="8240.99" x2="8086.99" y2="7662.78">
  </linearGradient>
 </defs>
 <g id="Layer_x0020_1">
  <metadata id="CorelCorpID_0Corel-Layer"/>
  <g id="_2382591770224">
   <g>
    <path class="fil0" d="M8051.8 3780.37l0 753.53 1007.53 0 0 -897.46c-91.47,0 -912.61,141.82 -1007.53,143.93z"/>
    <path class="fil0" d="M8051.8 5346.69c0,33.68 35.91,25.11 108.61,35.33 39.75,5.58 80.2,11.39 125.92,18.01 79.96,11.56 179.11,25.69 259.08,37.25l513.92 70.27 0 -888.99 -1007.53 0 0 728.13z"/>
    <path class="fil0" d="M7196.67 3898.9l0 643.46 762 0 0 -745.06c-76.18,0 -675.18,101.6 -762,101.6z"/>
    <path class="fil0" d="M7196.67 5228.16c0,35.35 104.57,34.65 175.2,44.92 60.14,8.75 126.42,16.57 193.67,26.47 66.88,9.86 133.38,19.12 192.47,27.67 66.47,9.61 138,22.72 200.66,27.94l0 -745.06 -762 0 0 618.06z"/>
   </g>
   <g>
    <path class="fil1" d="M7781.7 707.49c6.41,12.13 12.2,22.4 19.42,34.6 7.4,12.52 13.06,22.84 20.49,35.39 7.08,11.98 12.89,22.76 19.8,34.22l40.23 69.66c6.93,12.69 13.56,22.69 20.49,35.39 13.3,24.34 26.89,45.83 39.76,70.14 8.34,-0.69 15.99,-5.06 23.96,-7.7 8.33,-2.75 15.63,-5.49 25.56,-7.97 112.98,-28.21 227.93,-21.03 331.13,31.77l61.56 37.16c17.7,12.22 58.19,47.05 71.34,62.78l15.45 18.07c41.9,54.37 73.47,103.18 91.67,174.7 3.37,13.24 10.77,40.5 10.77,56.28l322.24 0c0,-11.63 -1.73,-27.77 -3.44,-37.54 -2.17,-12.42 -3.37,-25.57 -5.68,-37.16 -4.95,-24.82 -9.53,-46.07 -16.17,-69.52 -15.06,-53.22 -23.48,-74.45 -45.51,-123.98 -22.11,-49.72 -78.43,-138 -117.77,-180.26 -6.35,-6.83 -15.14,-15.48 -20.04,-22.8 -6.1,1.42 -13.39,5.06 -18.68,7.4 -49.62,21.98 -105.59,26.03 -157.79,16.33 -30.75,-5.72 -52.34,-15.96 -77.51,-28.67 -10.39,-5.24 -22.42,-13.74 -31.56,-20.59 -59.01,-44.2 -95.12,-108.34 -104.75,-187.68 -1.68,-13.8 2.1,-12.64 -11.13,-14.96 -16.41,-2.87 -29.41,-6.33 -45.51,-8.5 -112.02,-15.08 -205.3,-13.78 -316.02,13.9 -25.51,6.37 -49.99,13.17 -72.85,22.15 -12.39,4.86 -22.9,8.11 -35.16,13.27 -11.27,4.73 -22.36,11.34 -34.3,14.12z"/>
    <path class="fil2" d="M7941.89 1847.45c-2.46,9.22 -138.71,238.8 -160.19,279.4 9.02,2.1 18.47,7.69 26.33,10.91 138.83,56.9 268.49,75.5 422.47,54.18l65.29 -11.08c0,-45.88 21.76,-106.31 48.15,-141.84 3.26,-4.39 5.08,-7.47 8.49,-12 3.51,-4.66 5.44,-6.13 9.34,-11.15 3.78,-4.87 6.65,-7.3 10.86,-11.5 48.05,-47.92 107.02,-74.97 176.51,-78.72 25.75,-1.39 48.68,-0.37 74.13,5.97 11.26,2.81 21.84,5.43 33.1,9.74 10.01,3.83 21.15,10.06 30.59,12.26l57.49 -69.17c6.23,-8.28 11.81,-16.1 17.76,-25.08l32.44 -51.38c10.63,-17.56 33.25,-62.08 42.13,-84.53 4.36,-11.02 8.04,-20 12.23,-30.61 7.92,-20.09 14.7,-42.32 21.15,-64.54 6.68,-22.99 11.13,-45.96 15.96,-69.71 2.41,-11.86 4.12,-24.75 5.84,-37.01 1.63,-11.58 3.61,-26.23 3.61,-39.23l-322.24 0c0,41.95 -29.04,111.76 -47.8,149.64 -18.34,37.05 -42.23,66.44 -68.23,97.55 -4.95,5.92 -11.1,11.26 -16.68,16.85 -123.62,123.61 -305.8,164.99 -473.36,109.2 -7.03,-2.34 -19.36,-7.65 -25.37,-8.15z"/>
    <path class="fil3" d="M7366.32 1193.65c23.17,6.19 71.06,65.5 82.33,83.45 32.72,52.18 38.75,92.71 38.75,156.83 0,57.66 -30.87,120.74 -65.63,159.76 -11.85,13.29 -39.45,42.73 -55.45,47 0.32,14.04 27.03,81.82 35.37,98.75 39.68,80.54 57,110.1 113.91,180.39l77.47 80.86 48.92 40.48c4.54,3.26 8.58,5.92 13.05,9.31 4.71,3.58 8.36,7.56 14.9,9.31 23.84,-45.06 73.62,-129.92 100,-173.81 7.23,-12.04 13.69,-23.09 20.43,-35.45l39.76 -70.14 -18.08 -13.59c-6.7,-5.61 -10.33,-10.91 -17.31,-16.21 -13.05,-9.9 -50.3,-55.8 -60.74,-71.52 -77.35,-116.51 -101.25,-249.97 -63.69,-388.19 6.8,-25.04 25.21,-72.12 38.38,-93.87 8.64,-14.25 15.1,-27.22 24.86,-40.33 5.29,-7.1 8.19,-12.37 14.04,-19.49 5.89,-7.17 8.6,-11.62 15.01,-18.52l14.91 -16.76c6.06,-6.02 10.72,-10.72 16.76,-16.76 11.68,-11.68 22.22,-22.07 35.86,-31.2l-160.19 -279.4c-12.71,3.39 -63.53,49.21 -75.58,58.53 -12.62,9.74 -34.16,33.62 -45.96,45.32 -20.82,20.64 -24.84,27.83 -41.96,47.44 -21.64,24.78 -57.82,78.13 -73.05,107.63 -5.06,9.79 -12.35,19.78 -16.76,29.8l-27.42 62c-5.15,12.87 -22.59,55.14 -22.89,68.38z"/>
    <path class="fil1" d="M7032.91 1409.72c0,34.83 3.34,59.13 17.99,88.18 6.81,13.51 15.71,30.06 26.22,40.83 2.28,2.34 3.38,3.11 5.51,5.67 54.53,65.6 161.56,81.67 242.38,28.9l25.88 -20.69c9.6,-7.93 33.17,-41 38.35,-52.92 28.16,-64.77 24.91,-135.54 -17.04,-192.71 -68.2,-92.94 -202.32,-104.21 -282.02,-24.39 -32.6,32.66 -57.27,75.74 -57.27,127.13z"/>
    <path class="fil3" d="M8375.89 2184.59c0,58.37 13.81,92.51 47.87,132.81 17.52,20.73 34.74,32.28 59.53,44.78 60.63,30.56 135.3,21.74 190.62,-17.41 55.14,-39.02 89.68,-115.11 73.41,-190.74 -2.59,-12.02 -6.51,-25.51 -11.29,-35.28 -2.78,-5.7 -4.24,-9.45 -7.16,-15.19 -6.33,-12.5 -19.39,-29.73 -29.34,-39.58 -17.68,-17.53 -28.54,-27.08 -52.3,-38.97 -82.77,-41.38 -187.84,-14.97 -237.08,59.72 -17.91,27.17 -34.26,63.6 -34.26,99.86z"/>
    <path class="fil2" d="M8375.89 634.85c0,53.91 16.08,101.16 52.6,137.39 15.36,15.23 31.71,27.7 51.69,37.72 51.36,25.76 115.6,25.09 167.05,-0.63 23.76,-11.89 34.62,-21.44 52.3,-38.97 28.32,-28.06 52.09,-75.87 51.32,-129.65 -1.04,-74.02 -40.56,-135.69 -104.85,-167.93 -49.44,-24.8 -111.61,-25 -161.47,-1.24 -6.31,3.01 -9.05,3.93 -14.96,7.4 -5.25,3.08 -9.11,5.6 -13.58,8.76 -19.4,13.73 -21.82,17.31 -35.88,33.04 -24.92,27.91 -44.22,74.42 -44.22,114.11z"/>
   </g>
   <g>
    <path class="fil4" d="M4738.99 4133.49c11.26,12.4 25.77,197.32 190.75,106.29 72.29,-39.89 51.1,-61.18 120.13,-49.72 103.9,17.25 56.84,132.41 131.82,217.81 133.33,151.88 -33.15,147.01 -178.05,251.76 -32.23,23.29 -58.9,58.74 -87.31,85.7 -59.97,56.9 -168.99,104.44 -248.99,54.53 -29.75,-18.57 -64.42,-59.92 -67.27,-109.66 -5.58,-97.82 50.99,-192 59.39,-286.77 9.53,-107.3 1.35,-219.83 79.53,-269.94zm-1296.81 274.15c-15.12,-139.12 109.73,-100.1 164.15,-166.83 22.64,-27.76 49.25,-71.92 76.9,-91.73 58.79,-42.14 132.23,18.32 159.59,66.68 11.32,20.01 18.87,35.52 29.9,54.44 21.68,37.18 38.12,70.41 59.51,109.12 57.07,103.26 206.9,210.81 165.29,327.42 -14.27,39.98 -43.45,68.29 -87.69,80.89 -105.52,30.06 -187.23,-21.77 -267.15,-54.27 -161.6,-65.73 -361.67,16.55 -301.52,-181.08 20.45,-67.18 8.06,-79.86 1.02,-144.64zm1290.75 -818.75c40.58,13.24 110.6,129.44 129.17,168.6 43.32,91.33 46.64,141.72 35.32,250 46.07,13.4 141.54,64.34 138.27,130.59 -1.08,21.78 -1.28,20.16 -18.34,21.77 -9.76,-21.3 26.03,-63.03 -120.22,-121.38 -74.89,-29.88 -141.82,-28.77 -151.79,59.19 -48.27,29.4 -61.34,32.55 -84.27,88.67 -34.35,84.05 -17.23,185.12 -48.31,297.51 -9.4,34 -5.67,36.74 -31.43,52.96 -142.48,89.68 -315.97,121.84 -470.11,26.32 -16.62,-10.3 -67.35,-78.26 -76.83,-96.17 54.09,-3.2 89.02,-29.37 71.28,-88.32 -21.98,-73.02 -105.48,-139.68 -165.13,-180.51 -46.9,-32.09 -57.22,-30.43 -97.81,-75.27 -96.77,-106.87 -51.64,-266.77 12.76,-387.67 10.59,-19.89 18.36,-34.68 29.78,-54.61 4.52,-7.88 10.24,-17.83 15.47,-26.75 7.8,-13.31 10.8,-20.33 20.03,-26.44 -2.98,24.19 -34.98,80.69 -45.82,101.98 -53.06,104.14 -88.07,273.08 -10.06,348.25 6.73,-33.9 7.04,-72.68 14.03,-108.32 6.73,-34.36 14.61,-64.06 25.63,-96.67 67.74,-200.49 153.63,-271.88 195.47,-549.7l23.68 8.46c54.34,33.89 92.37,106.02 202.57,73.12 44.52,-13.29 70.69,-41.94 107.61,-56.83 85.47,-34.46 55.93,-27.31 102.67,-65.08 3.24,4.43 55.48,164.45 64.21,187.72 23.94,63.75 48.66,120.55 76.3,181.06 49.17,107.66 80.16,144.22 114.31,269.63 21.39,78.59 -4.97,58.59 62.29,69.09 29.87,-122.23 13.55,-214.19 -60.43,-319.96 -28.46,-40.69 -57.66,-58.82 -60.3,-81.24zm-494.02 -493.46c60.95,-17.23 107.38,7.98 150.51,33.73 39.7,23.68 101.19,31.16 132.22,61.82 45.39,44.86 -6.16,96.2 -38.74,117.08 -23.39,14.99 -41.54,17.27 -66.84,30.1 -20.83,10.56 -38.76,24.77 -60.24,36.66 -107.25,59.35 -162.35,-11.02 -205.57,-44.41 -18.22,-14.08 -41.79,-24.59 -56.77,-40.22 -60.49,-63.1 -0.38,-94.7 28.29,-115.61 46.81,-34.15 63.19,-63.9 117.14,-79.15zm-167.36 -50.09c0,-150.19 162.38,-164.81 161.83,33.73l-45.32 19.52c6.85,-136.44 -127.89,-98.29 -47.18,44.02 -12.25,5.48 -14.46,9.88 -26.1,17.14 -32.72,-18.04 -43.23,-70.44 -43.23,-114.41zm243.55 31.66c-11.5,-97.85 62.6,-209.41 155.82,-155.77 31.7,18.23 57.72,57.19 64.93,103.38 7.2,46.03 -4.86,109.17 -33.05,133.16 -14.67,-4.07 -44.56,-13.89 -55.09,-25.44 43.57,-36.57 22.89,-108.75 -1.88,-127.07 -40.14,-29.68 -77.38,19.63 -72.97,91.73l-57.76 -19.99zm-289.94 -120.23c0,173.28 38.56,309.85 -59.21,471.18 -43.34,71.51 -90.12,116.54 -135.68,184.83 -256.84,385.01 -159.26,497.6 -185.24,531.66l-31.13 36.5c-25.23,31.97 -28.46,47.81 -68.83,66.18 -45.37,20.63 -134.63,33.42 -134.63,135.21 0,40.91 14.71,82.55 11.98,122.23 -2.54,36.86 -23.58,63.1 -23.58,113.96 0,117.93 153.66,103.37 252.86,121.41 63.3,11.5 86.21,25.05 137.34,48.32 55.87,25.44 104.8,36.93 169.69,36.93 75.88,0 143.12,-42.65 159.21,-94.63 76.88,-1.91 150.22,-29.77 233.03,-29.77 70.46,0 137.11,18.96 215.1,18.96 19.22,3.64 9.1,40.31 63.12,88.64 30.73,27.49 71.41,42.11 122.46,42.11 151.8,0 190.21,-120.69 317.04,-197.39 89.89,-54.36 290.4,-94.65 136.42,-264.48 -59.94,-66.1 -30.05,-188.85 -125.02,-219.81 11.01,-59.91 22.67,-78.3 22.67,-149.19 0,-176.41 -96.99,-330.45 -172.52,-435.83 -83.51,-116.5 -218.64,-235.02 -218.64,-395.05 0,-232.3 14.07,-550.42 -278.85,-587.63 -248.71,-31.6 -407.59,101.94 -407.59,355.66z"/>
    <path class="fil5" d="M4732.93 3588.89c2.64,22.42 31.84,40.55 60.3,81.24 73.98,105.77 90.3,197.73 60.43,319.96 -67.26,-10.5 -40.9,9.5 -62.29,-69.09 -34.15,-125.41 -65.14,-161.97 -114.31,-269.63 -27.64,-60.51 -52.36,-117.31 -76.3,-181.06 -8.73,-23.27 -60.97,-183.29 -64.21,-187.72 -46.74,37.77 -17.2,30.62 -102.67,65.08 -36.92,14.89 -63.09,43.54 -107.61,56.83 -110.2,32.9 -148.23,-39.23 -202.57,-73.12l-23.68 -8.46c-41.84,277.82 -127.73,349.21 -195.47,549.7 -11.02,32.61 -18.9,62.31 -25.63,96.67 -6.99,35.64 -7.3,74.42 -14.03,108.32 -78.01,-75.17 -43,-244.11 10.06,-348.25 10.84,-21.29 42.84,-77.79 45.82,-101.98 -9.23,6.11 -12.23,13.13 -20.03,26.44 -5.23,8.92 -10.95,18.87 -15.47,26.75 -11.42,19.93 -19.19,34.72 -29.78,54.61 -64.4,120.9 -109.53,280.8 -12.76,387.67 40.59,44.84 50.91,43.18 97.81,75.27 59.65,40.83 143.15,107.49 165.13,180.51 17.74,58.95 -17.19,85.12 -71.28,88.32 9.48,17.91 60.21,85.87 76.83,96.17 154.14,95.52 327.63,63.36 470.11,-26.32 25.76,-16.22 22.03,-18.96 31.43,-52.96 31.08,-112.39 13.96,-213.46 48.31,-297.51 22.93,-56.12 36,-59.27 84.27,-88.67 9.97,-87.96 76.9,-89.07 151.79,-59.19 146.25,58.35 110.46,100.08 120.22,121.38 17.06,-1.61 17.26,0.01 18.34,-21.77 3.27,-66.25 -92.2,-117.19 -138.27,-130.59 11.32,-108.28 8,-158.67 -35.32,-250 -18.57,-39.16 -88.59,-155.36 -129.17,-168.6z"/>
    <path class="fil6" d="M3442.18 4407.64c7.04,64.78 19.43,77.46 -1.02,144.64 -60.15,197.63 139.92,115.35 301.52,181.08 79.92,32.5 161.63,84.33 267.15,54.27 44.24,-12.6 73.42,-40.91 87.69,-80.89 41.61,-116.61 -108.22,-224.16 -165.29,-327.42 -21.39,-38.71 -37.83,-71.94 -59.51,-109.12 -11.03,-18.92 -18.58,-34.43 -29.9,-54.44 -27.36,-48.36 -100.8,-108.82 -159.59,-66.68 -27.65,19.81 -54.26,63.97 -76.9,91.73 -54.42,66.73 -179.27,27.71 -164.15,166.83z"/>
    <path class="fil6" d="M4738.99 4133.49c-78.18,50.11 -70,162.64 -79.53,269.94 -8.4,94.77 -64.97,188.95 -59.39,286.77 2.85,49.74 37.52,91.09 67.27,109.66 80,49.91 189.02,2.37 248.99,-54.53 28.41,-26.96 55.08,-62.41 87.31,-85.7 144.9,-104.75 311.38,-99.88 178.05,-251.76 -74.98,-85.4 -27.92,-200.56 -131.82,-217.81 -69.03,-11.46 -47.84,9.83 -120.13,49.72 -164.98,91.03 -179.49,-93.89 -190.75,-106.29z"/>
    <path class="fil6" d="M4262.4 3317.38c61.7,0 130.05,-41.53 175.66,-75.32 34.23,-25.34 24.83,-31.86 48.92,-34.07 -10.73,44.4 -134.59,110.58 -198.35,120.47 -63.99,9.91 -127.81,-20.88 -167.31,-61.91 -12.08,-12.55 -31.78,-21.3 -23.94,-43.01 20.38,6.15 66.3,93.84 165.02,93.84zm53.91 -173.86c-16.96,-7.62 -10.76,-2.51 -16.48,-15.14 6.03,-3.26 19.08,-2.61 27.39,-0.21 18.36,5.3 11.76,3.71 14.79,14.18 -13.01,10.23 -12.28,7.2 -25.7,1.17zm-109 3.05c1.89,-11.38 3.23,-15.04 15.37,-18.76 10.89,-3.33 18.92,-0.7 26.02,2.41 -6.73,14.11 -25.54,18.38 -41.39,16.35zm31.6 -51.14c-53.95,15.25 -70.33,45 -117.14,79.15 -28.67,20.91 -88.78,52.51 -28.29,115.61 14.98,15.63 38.55,26.14 56.77,40.22 43.22,33.39 98.32,103.76 205.57,44.41 21.48,-11.89 39.41,-26.1 60.24,-36.66 25.3,-12.83 43.45,-15.11 66.84,-30.1 32.58,-20.88 84.13,-72.22 38.74,-117.08 -31.03,-30.66 -92.52,-38.14 -132.22,-61.82 -43.13,-25.75 -89.56,-50.96 -150.51,-33.73z"/>
    <path class="fil5" d="M4315.1 3077l57.76 19.99c-4.41,-72.1 32.83,-121.41 72.97,-91.73 24.77,18.32 45.45,90.5 1.88,127.07 10.53,11.55 40.42,21.37 55.09,25.44 28.19,-23.99 40.25,-87.13 33.05,-133.16 -7.21,-46.19 -33.23,-85.15 -64.93,-103.38 -93.22,-53.64 -167.32,57.92 -155.82,155.77z"/>
    <path class="fil5" d="M4071.55 3045.34c0,43.97 10.51,96.37 43.23,114.41 11.64,-7.26 13.85,-11.66 26.1,-17.14 -80.71,-142.31 54.03,-180.46 47.18,-44.02l45.32 -19.52c0.55,-198.54 -161.83,-183.92 -161.83,-33.73z"/>
    <path class="fil4" d="M4262.4 3317.38c-98.72,0 -144.64,-87.69 -165.02,-93.84 -7.84,21.71 11.86,30.46 23.94,43.01 39.5,41.03 103.32,71.82 167.31,61.91 63.76,-9.89 187.62,-76.07 198.35,-120.47 -24.09,2.21 -14.69,8.73 -48.92,34.07 -45.61,33.79 -113.96,75.32 -175.66,75.32z"/>
    <path class="fil4" d="M4299.83 3128.38c5.72,12.63 -0.48,7.52 16.48,15.14 13.42,6.03 12.69,9.06 25.7,-1.17 -3.03,-10.47 3.57,-8.88 -14.79,-14.18 -8.31,-2.4 -21.36,-3.05 -27.39,0.21z"/>
    <path class="fil4" d="M4207.31 3146.57c15.85,2.03 34.66,-2.24 41.39,-16.35 -7.1,-3.11 -15.13,-5.74 -26.02,-2.41 -12.14,3.72 -13.48,7.38 -15.37,18.76z"/>
   </g>
   <g>
    <path class="fil7" d="M11097.46 962.05l8.15 2.23c-2.68,13.91 -1.1,8.98 -12.52,19.71 -12.55,21.22 -77.19,119.67 -96.58,133.57 -1.91,15.08 -147.53,216.26 -175.9,256 -6.75,9.45 -13.73,21.14 -19.21,29.15l-80.22 113.22c-15.41,22.35 -25.98,42.31 -42.8,59.93 1.86,18.15 -3.55,9.53 5.44,9.88 0.85,-0.85 2.34,-3.13 2.79,-2.29l15.05 -12.67c10.63,-8.74 9.26,-6.48 21.06,-13.05 8.66,-4.82 10.3,-7.32 18.96,-12.21 8.13,-4.6 16.98,-7.19 24.22,-11.66l319.98 -207.48c27.97,-19.54 9.04,3.38 59.31,-37.63 5.59,-4.56 14.62,-9.63 21.46,-13.35 40.18,-21.79 124.08,-93.02 171.87,-95.78 -0.03,-0.05 -4.37,-9.51 -5.18,-10.8 16.34,-7.52 52.53,-30.56 68.2,-41.73 14.42,-10.28 13.39,-11.4 31.6,-20.9 6.11,-3.18 11.12,-6.12 16.91,-10.02 6.78,-4.56 9.95,-7.85 15.57,-11.19 9.75,-5.41 8.37,-4.14 14.89,-10.03 12.31,4.18 2.92,-3 12.22,8.84l1.08 -18.09c28.89,-13 51.74,-36.78 76.55,-42.93 21.61,-24.22 89.88,-53.7 100.98,-71.99 -6.62,-5.26 0.26,-2.44 -10.84,-5.4l-105.18 -0.01c-31.93,0.73 -96.74,8.37 -118.75,-3.64 -6,12.58 -14.08,13.93 -21.56,1.16 -22.79,11.67 -122.64,7.44 -158.91,8.2l-127.86 1.32c-6.26,0.08 -13.81,-0.1 -19.43,1.81 -11.25,3.83 -5.14,1.4 -11.35,7.83z"/>
    <path class="fil8" d="M10579.17 1713.77l-5.65 1.13 -1.67 0.18 -4.46 17.12 -17.92 3.47 -69.97 61.94c-14.02,11.66 -26.44,18.78 -39.21,31.61 -11.24,11.3 -18.32,24.52 -35.11,28.84 -5.67,18.67 -23.55,27.8 -34.66,37.72 -9.61,8.57 -25.67,27.65 -37.73,31.88l-16.08 1.05 -0.94 -12.16c4.69,26.59 1.21,23.03 -31.82,55.51l-85.96 81.1c-14.21,14.54 -35.13,28.19 -39.44,42.33 -3.88,15.26 1.7,3.02 -8.28,15.33 -7.6,9.37 0.98,-7.98 -9.36,15.56l28.31 -7.47 5.18 -2.13c0.93,-0.42 4.18,-1.92 5.27,-2.46 41.15,-20.03 125.52,-78.08 152.74,-85.63 -5.39,28.73 -71.84,132.66 -86.29,160.01 -15,28.41 -26.89,55.82 -42.37,81.98 -13.92,23.51 -37.72,56.24 -42.96,77.98l-1.43 19.13 16.83 -4.35c20.75,-18.09 103.98,-133.4 134.54,-171.19 10.33,-12.77 31.44,-48.54 49.14,-54.8 -2.04,33.49 -24.27,103.46 -34.04,136.82 -12.2,41.68 -23.59,87.97 -34.62,133.09 -6.42,26.24 -68.29,230.34 -66.35,253.12l151.34 -372.02c4.19,-9.42 0.45,-3.38 6.56,-11.59 5.35,-7.2 1.9,-2.53 7.59,-7.78 -1.48,65.15 -104.56,518.66 -111.09,604.6l18.93 0 135.07 -486.36c6.99,16.88 -35.29,421.75 -35.98,486.36l16.51 0 49.29 -435.72c-0.59,-0.88 -1.24,-2.18 -1.53,-2.78 -0.29,-0.6 -1.12,-2.06 -1.47,-2.82l-138.23 -493.07c43.41,-11.99 86.35,-20.43 133.21,-26.19 11.69,-1.43 123.35,-22.92 127.97,-25.08 8.56,-20.88 13.79,-149.62 15.31,-183.32 -17.82,2.7 -11.02,-5.7 -19.17,9.06z"/>
    <path class="fil9" d="M11498.56 1197.69c-6.12,4.49 0.49,2.1 -10.12,4.14l-73.71 -9.68c-20.52,-3.79 -56.22,-13.08 -76.21,-12.53 -47.79,2.76 -131.69,73.99 -171.87,95.78 -6.84,3.72 -15.87,8.79 -21.46,13.35 -50.27,41.01 -31.34,18.09 -59.31,37.63l-319.98 207.48c-7.24,4.47 -16.09,7.06 -24.22,11.66 -8.66,4.89 -10.3,7.39 -18.96,12.21 -11.8,6.57 -10.43,4.31 -21.06,13.05l-15.05 12.67c-0.45,-0.84 -1.94,1.44 -2.79,2.29l251.66 -79.36c8.23,-2.03 17.26,-1.81 25.8,-2.48 21.7,-27.89 4.17,-2.42 45.92,-22.65 0.9,-0.43 1.97,-1.12 2.85,-1.55 0.84,-0.42 1.9,-1.12 2.74,-1.52 0.82,-0.39 1.91,-1.04 2.74,-1.4 15.99,-6.97 -16.55,2.51 8.94,-3.15 15.01,-3.34 29.26,-0.44 44.75,-6.12 24.01,-8.82 -0.61,-8.74 39.06,-7.06l0.01 -10.43c59.35,-7.71 396.82,-137.93 431.64,-129.16l1.39 -9.71 11.39 -0.12c19.72,-16.62 146.52,-39.75 173.52,-61.03 -13.34,-7.42 -165.25,-33.57 -195.35,-36.97 -3.93,-15.48 -5.92,-21.49 -1.94,-33.95 -6.82,-7.37 -1.64,0.46 -7.67,-10.01 -3.92,-6.79 -0.94,0.04 -4.55,-9.88 -1.69,-4.64 -2.74,-11.9 -4.26,-17.99 3.43,28.71 13.58,40.84 13.43,66.09 -28.8,0.11 -11.48,1.57 -27.33,-9.6z"/>
    <path class="fil10" d="M10683.82 1585.74c-8.99,-0.35 -3.58,8.27 -5.44,-9.88 -5.83,4.51 -32.42,47 -39.09,56.13 -6.9,9.47 -13.78,19.18 -20.05,28.36 -12.94,18.93 -2.94,16.2 -23.79,26.56 1.4,12.12 -4.77,8.51 -13.71,7.76 -4.93,13.25 -4.18,7.69 -8.22,20.23l5.65 -1.13 5.24 -9.09 16.19 -1.98c-0.88,-18.59 3.89,-15.67 21.31,-17.02l592.01 -46.02c9.4,-7.46 20.75,-5.03 42.28,-6.33 54.35,-3.3 73.08,-8.28 144.46,-10.31l91.25 -9.3c-23.73,-15.98 -63.73,-28.11 -93.49,-39.47l-196.24 -77.43c-27.52,-10.98 -67.5,-29.62 -93.9,-36.37 -39.67,-1.68 -15.05,-1.76 -39.06,7.06 -15.49,5.68 -29.74,2.78 -44.75,6.12 -25.49,5.66 7.05,-3.82 -8.94,3.15 -0.83,0.36 -1.92,1.01 -2.74,1.4 -0.84,0.4 -1.9,1.1 -2.74,1.52 -0.88,0.43 -1.95,1.12 -2.85,1.55 -41.75,20.23 -24.22,-5.24 -45.92,22.65 -8.54,0.67 -17.57,0.45 -25.8,2.48l-251.66 79.36z"/>
    <path class="fil11" d="M10958.11 1085.17c-13.88,4.94 -12.51,8.19 -27.61,19.13 -13.52,9.81 -17.72,13.15 -30.21,22.77 -92.55,71.33 -201.14,164.83 -293.19,235.06 -24.16,18.44 -102.17,76.75 -117.94,94.99l19.98 -6.2 24.01 60.11c11.25,24.91 7.94,35.9 14.71,51.49 5.41,12.45 4.96,8.14 10.36,24.9l27.92 59.44c10.88,18.39 9.44,18.82 8.67,38.74l0.64 1.31c20.85,-10.36 10.85,-7.63 23.79,-26.56 6.27,-9.18 13.15,-18.89 20.05,-28.36 6.67,-9.13 33.26,-51.62 39.09,-56.13 16.82,-17.62 27.39,-37.58 42.8,-59.93l80.22 -113.22c5.48,-8.01 12.46,-19.7 19.21,-29.15 28.37,-39.74 173.99,-240.92 175.9,-256 5.64,-36.3 40.98,-53.28 50.14,-85.59 -32.98,1.46 -51.28,44.09 -88.54,53.2z"/>
    <path class="fil9" d="M10615.09 1104.87l8.04 2.55c-9.29,15.43 -18.4,32.16 -28.69,48.48l-89.34 148.65c-5.51,9.32 -8.33,15.19 -14.1,25.8 -7.76,14.27 -9.16,12.09 -15.73,23.04 -7.03,11.68 -5.59,14.69 -14.6,25.41l-72.73 122.04 -0.58 20.22c29.99,-3.97 8.91,-6.57 35.69,-15.45 7.07,-2.05 57.41,-41.67 66.11,-48.49 15.77,-18.24 93.78,-76.55 117.94,-94.99 92.05,-70.23 200.64,-163.73 293.19,-235.06 12.49,-9.62 16.69,-12.96 30.21,-22.77 15.1,-10.94 13.73,-14.19 27.61,-19.13 3.68,-11.55 5.29,-10.43 14.36,-17.75l116.42 -91.51c6.19,5.04 8.3,-8.5 4.2,8.08 11.42,-10.73 9.84,-5.8 12.52,-19.71l-8.15 -2.23c-27.48,2.36 -456.25,129.04 -482.37,142.82z"/>
    <path class="fil12" d="M10211.42 1302.78c-4.69,10.44 2.31,3.54 -6.98,9.1 -23.03,-7.07 -65.58,-12.54 -89.25,-16.73 -17.59,-3.11 -28.82,-4.54 -44.86,-7.65 -13.91,-2.7 -31.65,-3.06 -42.44,-11.89l-11.42 1.98 198.05 253.26 1.02 -17.47c10.86,8.47 11.08,13.49 26.59,18.96 30.02,10.58 72.48,24.02 95.65,47.67 -10.6,46.12 -44.42,139.48 -44.29,161.84 21.87,0.76 19.25,-0.5 37.02,-4.79l104.91 -18.8c27.7,-4.53 45.35,-7.13 70.33,-13.72 24.02,-6.34 46.6,-12.54 75.99,-9.87 8.94,0.75 15.11,4.36 13.71,-7.76l-0.64 -1.31c-26.05,-8.38 -44.37,-17.62 -66.74,-28.36l-88.2 -39.31c-28.91,-14.22 -78.85,-31.42 -99.88,-45.22 20.39,-138 7.97,-145.96 15.95,-233.88 2.05,-22.54 9.23,-52.46 -2.72,-72.3l-101.31 35.51c-12.35,4.53 -21.54,7.95 -35.63,9.88l-4.86 -9.14z"/>
    <path class="fil13" d="M10579.17 1713.77c8.15,-14.76 1.35,-6.36 19.17,-9.06 -1.52,33.7 -6.75,162.44 -15.31,183.32 -4.62,2.16 -116.28,23.65 -127.97,25.08 -46.86,5.76 -89.8,14.2 -133.21,26.19l138.23 493.07c0.35,0.76 1.18,2.22 1.47,2.82 0.29,0.6 0.94,1.9 1.53,2.78l9.13 -26.94c1.83,-28.23 3.25,-17.28 9.2,-33.98 4.29,-12.03 -0.25,-10.63 2.39,-28.75 3.13,-21.45 15.79,-50.58 14.72,-65.97 -0.22,-26.27 -6.9,-10.83 11.13,-20.25 -5.68,-20.9 17.84,-108.91 23.92,-133.03 11.09,-43.92 18.02,-87.22 31.15,-131.34 6.35,-21.36 7.46,-41.85 14.37,-64.27 18.23,-59.1 24.41,-177.32 21.51,-230.74l-16.19 1.98 -5.24 9.09z"/>
    <path class="fil14" d="M10352.73 1260.4l0.49 6.13c11.95,19.84 4.77,49.76 2.72,72.3 -7.98,87.92 4.44,95.88 -15.95,233.88 21.03,13.8 70.97,31 99.88,45.22l88.2 39.31c22.37,10.74 40.69,19.98 66.74,28.36 0.77,-19.92 2.21,-20.35 -8.67,-38.74l-27.92 -59.44c-5.4,-16.76 -4.95,-12.45 -10.36,-24.9 -6.77,-15.59 -3.46,-26.58 -14.71,-51.49l-24.01 -60.11 -19.98 6.2c-8.7,6.82 -59.04,46.44 -66.11,48.49 -6.81,16.83 -14.27,16.44 -30.12,29.8 -15.51,13.07 -13.18,16.49 -37.33,21.04 3.3,-23.41 14.17,-44.44 32.34,-55.61l72.73 -122.04c9.01,-10.72 7.57,-13.73 14.6,-25.41 6.57,-10.95 7.97,-8.77 15.73,-23.04 5.77,-10.61 8.59,-16.48 14.1,-25.8l89.34 -148.65c10.29,-16.32 19.4,-33.05 28.69,-48.48l-8.04 -2.55c-31.66,24.43 -92.31,58.16 -128.26,79.7 -24.6,14.76 -42.06,25.5 -65.78,39.82 -20.67,12.49 -45.98,33.41 -68.32,36.01z"/>
    <path class="fil14" d="M10214.52 1530.85c3.68,32.51 46.04,142.21 59.62,181.37 21.23,61.21 29.38,137.52 41.63,204.33l0.94 12.16 16.08 -1.05 -1.86 -14.65c14.78,-6.69 55.43,-43.05 61.49,-52.49l12.76 -2.46c16.79,-4.32 23.87,-17.54 35.11,-28.84 12.77,-12.83 25.19,-19.95 39.21,-31.61l69.97 -61.94 8.42 -17.17 13.96 -3.42 1.67 -0.18c4.04,-12.54 3.29,-6.98 8.22,-20.23 -29.39,-2.67 -51.97,3.53 -75.99,9.87 -24.98,6.59 -42.63,9.19 -70.33,13.72l-104.91 18.8c-17.77,4.29 -15.15,5.55 -37.02,4.79 -0.13,-22.36 33.69,-115.72 44.29,-161.84 -23.17,-23.65 -65.63,-37.09 -95.65,-47.67 -15.51,-5.47 -15.73,-10.49 -26.59,-18.96l-1.02 17.47z"/>
    <path class="fil15" d="M10102.72 1154.47c5.04,4.46 5.22,3.57 10.03,7.16 3.04,2.29 5.24,5.6 5.83,4.59 0.52,-0.91 2.11,1.54 3.04,2.45 13.43,3.2 14.53,13.31 22.59,27.41 7.07,12.36 13.13,20.79 22.06,34.79 16.76,26.28 26.97,54.09 45.15,71.91l4.86 9.14c14.09,-1.93 23.28,-5.35 35.63,-9.88l101.31 -35.51 -0.49 -6.13c-12.4,-13.98 -37.22,-24.12 -46.22,-34.69 -14.53,-4.27 -36.45,-16.69 -47.77,-32.07 -17.1,-4.02 -144.05,-89.76 -160.56,-101.93 -20.93,0.3 -5.64,-1.75 -12.63,4.28l27.36 52.8c-5.42,6.97 9.08,5.5 -10.19,5.68z"/>
    <path class="fil16" d="M9979.31 1188.7c11.03,11.19 34.64,75.86 37.16,88.89l11.42 -1.98c23.66,-36.97 76.41,-75.63 93.73,-106.94 -0.93,-0.91 -2.52,-3.36 -3.04,-2.45 -0.59,1.01 -2.79,-2.3 -5.83,-4.59 -4.81,-3.59 -4.99,-2.7 -10.03,-7.16 -32.48,-5.2 -49.31,-18.61 -77.75,-27.84 -20.7,-6.72 -64.16,-25.95 -79.03,-25.68l1.16 2.57c8.59,13.01 30.81,68.26 32.21,85.18z"/>
    <path class="fil17" d="M9979.31 1188.7c-1.4,-16.92 -23.62,-72.17 -32.21,-85.18 -16.26,6.61 -22.1,16.77 -32.28,28.29 -42.07,47.67 -43.23,22.58 -51.27,128.5 22.65,-7.55 35.97,-28.9 51.9,-44.08 39.23,-37.4 34.75,-26.74 63.86,-27.53z"/>
    <path class="fil9" d="M9945.94 1100.95c14.87,-0.27 58.33,18.96 79.03,25.68 28.44,9.23 45.27,22.64 77.75,27.84 19.27,-0.18 4.77,1.29 10.19,-5.68l-27.36 -52.8c6.99,-6.03 -8.3,-3.98 12.63,-4.28 -29.54,-20.81 -39.51,-13.19 -73.45,-8.27 -20.78,3.01 -64,6.41 -78.79,17.51z"/>
    <path class="fil17" d="M10016.47 1277.59c-2.52,-13.03 -26.13,-77.7 -37.16,-88.89 -8.11,29.07 -40.33,42.41 -50.34,71.74l87.5 17.15z"/>
    <path class="fil18" d="M10958.11 1085.17c37.26,-9.11 55.56,-51.74 88.54,-53.2 -9.16,32.31 -44.5,49.29 -50.14,85.59 19.39,-13.9 84.03,-112.35 96.58,-133.57 4.1,-16.58 1.99,-3.04 -4.2,-8.08l-116.42 91.51c-9.07,7.32 -10.68,6.2 -14.36,17.75z"/>
    <path class="fil19" d="M10169.22 2118.91l-28.31 7.47c10.34,-23.54 1.76,-6.19 9.36,-15.56 9.98,-12.31 4.4,-0.07 8.28,-15.33 -18.79,6.76 -73.07,63.7 -89,81.57 14.91,-1.72 36.02,-15.94 51.21,-25.17l41.42 -24.56c6.09,-5.24 2.51,-2.01 7.04,-8.42z"/>
    <path class="fil19" d="M10176.19 2363.44l-16.83 4.35 1.43 -19.13c-12.37,9.7 -55.72,94.27 -58.42,107.44 13.09,-6.39 30.1,-29.85 40.26,-44.37 11.39,-16.29 25.95,-28.82 33.56,-48.29z"/>
    <path class="fil20" d="M10423.05 1505.61c-26.78,8.88 -5.7,11.48 -35.69,15.45l0.58 -20.22c-18.17,11.17 -29.04,32.2 -32.34,55.61 24.15,-4.55 21.82,-7.97 37.33,-21.04 15.85,-13.36 23.31,-12.97 30.12,-29.8z"/>
    <path class="fil21" d="M10332.79 1927.66c12.06,-4.23 28.12,-23.31 37.73,-31.88 11.11,-9.92 28.99,-19.05 34.66,-37.72l-12.76 2.46c-6.06,9.44 -46.71,45.8 -61.49,52.49l1.86 14.65z"/>
    <polygon class="fil22" points="10549.47,1735.67 10567.39,1732.2 10571.85,1715.08 10557.89,1718.5 "/>
   </g>
   <g>
    <path class="fil23" d="M2306.15 8723.5c8.35,-17.94 11.37,-1488.86 3.5,-1624.33l-682.36 -3.83c4.84,36.11 140.58,351.27 164.86,407.68l514 1220.48z"/>
    <path class="fil23" d="M451.56 8710.78c9.95,-7.5 9.37,-4.54 20.25,-9.61l529.69 -1271.93c4.07,-22.5 -0.06,-7.11 7.09,-24.43 0.77,-1.87 3.86,-2.6 4.5,-6.66 0.65,-4.08 3.5,-4.12 5.17,-6.25l9.31 -23.97c3.63,-22.16 -0.19,-6.64 6.5,-25.01 0.75,-2.04 3.57,-2.97 4.2,-7.28 0.63,-4.38 3.26,-4.65 4.82,-7.02l97.88 -230.37 -685.67 -2.76 -3.74 1615.29z"/>
    <path class="fil23" d="M1398.93 7733.64l-33.6 7.69 -283.31 658.92 315.67 2.4 133.32 327 284.14 2.22c-13.03,-68.95 -74.26,-194.16 -101.15,-254.19 -108.45,-242.03 -207.18,-503.92 -315.07,-744.04z"/>
    <path class="fil24" d="M1365.33 7741.33l33.6 -7.69 -13.3 -29.41c-21.06,18.8 -14.09,11.54 -20.3,37.1z"/>
    <path class="fil25" d="M451.56 8710.78c2.93,32.47 -2.27,10.07 11.71,18.2l8.54 -27.81c-10.88,5.07 -10.3,2.11 -20.25,9.61z"/>
    <path class="fil26" d="M1027.57 7367.93c1.47,-1.9 4.02,-6.7 4.55,-5.59 0.56,1.17 3.34,-4.53 4.02,-6.41 6.58,-18.23 2.29,0.78 6.95,-27.31 -1.56,2.37 -4.19,2.64 -4.82,7.02 -0.63,4.31 -3.45,5.24 -4.2,7.28 -6.69,18.37 -2.87,2.85 -6.5,25.01z"/>
    <path class="fil26" d="M1001.5 7429.24c1.55,-1.93 4.18,-6.88 4.77,-5.68 0.6,1.25 3.51,-4.53 4.25,-6.31 7.14,-17.2 2.67,-1.29 7.74,-25.35 -1.67,2.13 -4.52,2.17 -5.17,6.25 -0.64,4.06 -3.73,4.79 -4.5,6.66 -7.15,17.32 -3.02,1.93 -7.09,24.43z"/>
   </g>
   <g>
    <path class="fil27" d="M14909.84 4368.51c42.7,57.92 189.77,432.91 222.34,515.25 62.34,157.55 156.87,349.22 217.15,524.56l502.61 2.9 -542.24 -1281.55c-5.46,10.29 -17.88,62.2 -21.08,83.46 -156.17,2.28 -66.39,21.24 -144.87,38.45 -9.86,2.18 -40.72,1.5 -52.35,1.69 -1.53,3.98 -5.33,17.69 -6.61,20.35 -11.27,23.28 -6.66,13.81 -19.02,29.27l-89.64 1.26c-2.68,-3.3 -5.18,-8.2 -6.73,-10.82l-21.15 -38.01c8.41,16.77 18.39,24.8 7.88,62.65 -21.81,78.5 7.76,32.84 -46.29,50.54z"/>
    <path class="fil28" d="M14790.17 4102.11c50.99,50.57 95.15,192.78 119.67,266.4 54.05,-17.7 24.48,27.96 46.29,-50.54 10.51,-37.85 0.53,-45.88 -7.88,-62.65l21.15 38.01c1.55,2.62 4.05,7.52 6.73,10.82l89.64 -1.26c12.36,-15.46 7.75,-5.99 19.02,-29.27 1.28,-2.66 5.08,-16.37 6.61,-20.35 11.63,-0.19 42.49,0.49 52.35,-1.69 78.48,-17.21 -11.3,-36.17 144.87,-38.45 3.2,-21.26 15.62,-73.17 21.08,-83.46 -19.5,-89.11 -181.76,-455.36 -218.91,-495.56 -120.76,-24.56 -374.41,-5.15 -512.18,-8.34 40.98,55.34 37.32,47.58 66.81,115.66 18.22,42.12 33.37,76.88 50.9,116.98 25.96,59.36 91.65,194.55 93.85,243.7z"/>
    <path class="fil29" d="M14050.69 4675.5c134.1,0.5 136.75,52.61 219.98,78.71l165.7 54.23c48.41,20.13 14.28,-2.89 38.96,29.33l247.42 -583.94c-50.2,-14.38 -30.5,-28.53 -94.11,-48.16 -62.1,-19.17 -73.25,-20.03 -132.17,-58.15l-48.55 -29.19c-15.31,-7.28 -40.47,-15.49 -50.11,-16.28l-43.3 6.61c-1.94,-3.33 -7.16,2.31 -10.44,4.11 -14.37,-78.78 9.62,-23.05 -30.29,-48.96 -27.68,29.65 -56.16,109.65 -73.21,150.47 -21.26,50.87 -44.14,101.62 -64.47,153.13 -37.01,93.7 -95.9,211.66 -125.41,308.09z"/>
    <path class="fil30" d="M14396.32 5399.43c95.84,-16.18 443.62,-248.74 565.39,-323.79 46.38,-28.57 159.03,-87.76 181.27,-123.37l-708.3 -1.85 -331.59 5.39 104.58 10.13 87.87 204.26c15.46,45.87 21.06,82.69 40.62,126l60.16 103.23z"/>
    <path class="fil31" d="M14313.78 4063.81c39.91,25.91 15.92,-29.82 30.29,48.96 3.28,-1.8 8.5,-7.44 10.44,-4.11l43.3 -6.61c9.64,0.79 34.8,9 50.11,16.28l48.55 29.19c58.92,38.12 70.07,38.98 132.17,58.15 63.61,19.63 43.91,33.78 94.11,48.16l67.42 -151.72c-2.2,-49.15 -67.89,-184.34 -93.85,-243.7 -17.53,-40.1 -32.68,-74.86 -50.9,-116.98 -29.49,-68.08 -25.83,-60.32 -66.81,-115.66 -136.74,-3.69 -124.34,78.48 -169.12,183.31 -20.74,48.53 -34.59,86.62 -50.9,124.88 -19.14,44.86 -43.85,84.59 -44.81,129.85z"/>
    <path class="fil32" d="M14003.87 4919.94c39.11,23.18 46.87,25.67 99.22,35.87l331.59 -5.39 40.65 -112.65c-24.68,-32.22 9.45,-9.2 -38.96,-29.33l-165.7 -54.23c-83.23,-26.1 -85.88,-78.21 -219.98,-78.71 -37.35,68.32 -86.24,160.44 -46.82,244.44z"/>
    <path class="fil33" d="M14396.32 5399.43l-60.16 -103.23c-19.56,-43.31 -25.16,-80.13 -40.62,-126l-87.87 -204.26 -104.58 -10.13c-52.35,-10.2 -60.11,-12.69 -99.22,-35.87 35.46,89.84 106.01,207.98 153.39,297.13 24.61,46.33 53.46,102.36 76.71,141.23 34.6,57.84 84.76,60.35 162.35,41.13z"/>
   </g>
   <g style="clip-path:url(#id0)">
    <image x="14105.48" y="258.05" width="1862.66" height="1816.28" xlink:href="software_logo_Images\software_logo_ImgID1.png"/>
   </g>
   <g style="clip-path:url(#id1)">
    <image x="14105.47" y="7004.94" width="1862.67" height="1817.33" xlink:href="software_logo_Images\software_logo_ImgID2.png"/>
   </g>
   <g>
    <path class="fil34" d="M912.03 1523.97l-124.53 0.24c-6.82,-49.02 165.75,-607.53 201.49,-734.25 10.33,-36.62 15.23,-103.57 40.06,-112.02 2.81,-0.95 136.45,-25.97 160.85,24.37 27.67,57.1 238.03,805.87 238.15,821.55l-133.11 0.13 -71.72 -237.94 -242.61 0.02 -68.58 237.9zm994.81 -16.22c-124.71,50.86 -272.2,44.39 -369.38,-60.78 -79.42,-85.94 -89.17,-265.67 -44.29,-385.43 113.1,-301.75 536.89,-194.84 451.5,166 -58.15,23.21 -262.93,11.08 -339.39,10.37 23.24,190.95 124.53,194.73 304.54,153.1l-2.98 116.74zm-1374.69 484.45l1696.31 0.45 -1.13 -1652.61 -1695.86 2.25 0.68 1649.91z"/>
    <path class="fil35" d="M531.47 342.29l1695.86 -2.25 1.13 1652.61 -1696.31 -0.45 -0.68 -1649.91zm-79.91 1738.69l1862.68 0 0 -1829.58 -1862.68 0 0 1829.58z"/>
    <path class="fil35" d="M1102.44 814.02l90.02 347.8 -184.37 1.05 94.35 -348.85zm-121.83 472.05l242.61 -0.02 71.72 237.94 133.11 -0.13c-0.12,-15.68 -210.48,-764.45 -238.15,-821.55 -24.4,-50.34 -158.04,-25.32 -160.85,-24.37 -24.83,8.45 -29.73,75.4 -40.06,112.02 -35.74,126.72 -208.31,685.23 -201.49,734.25l124.53 -0.24 68.58 -237.9z"/>
    <path class="fil35" d="M1609.35 1132.92c11.33,-72.62 32.47,-131.11 109.79,-132.25 79.72,-1.19 103.63,50.85 101.9,132.79l-211.69 -0.54zm297.49 374.83l2.98 -116.74c-180.01,41.63 -281.3,37.85 -304.54,-153.1 76.46,0.71 281.24,12.84 339.39,-10.37 85.39,-360.84 -338.4,-467.75 -451.5,-166 -44.88,119.76 -35.13,299.49 44.29,385.43 97.18,105.17 244.67,111.64 369.38,60.78z"/>
    <polygon class="fil34" points="1008.09,1162.87 1192.46,1161.82 1102.44,814.02 "/>
    <path class="fil34" d="M1609.35 1132.92l211.69 0.54c1.73,-81.94 -22.18,-133.98 -101.9,-132.79 -77.32,1.14 -98.46,59.63 -109.79,132.25z"/>
   </g>
   <g>
    <path class="fil36" d="M7388.85 6961.4c-31.31,-14.22 -58.42,-25.25 -80.49,-33.55 -4.68,-34.79 -8.02,-69.64 -10.19,-104.6 -1.68,-28.78 -0.64,-57.2 2.81,-85.15 18.79,3.09 45.43,7.77 78.61,14.2 -3.26,39.55 -3.56,81.22 0,125.25 2.25,28.12 5.32,56.1 9.26,83.85l0 0zm309.47 182.73c-79.16,-58.06 -153.48,-103.11 -218.06,-137.59 -13.09,-80.47 -18.7,-160.2 -13.75,-236.11 59.74,13.2 130.3,30.2 207.99,51.8 -5.17,101.49 4.37,210.66 23.82,321.89l0 0.01zm812.8 42.34c-0.75,8.77 -1.78,17.65 -2.73,26.53 -108.14,56.47 -215.72,132.55 -312.46,235.18 -31.31,33.18 -59.82,66.45 -85.89,99.63 -29.24,-37 -60.49,-74.49 -93.65,-112.16 -14.86,-16.83 -29.72,-33.17 -44.76,-49.07 -24.86,-166.48 -40.69,-330.78 -43.59,-484.73 192.46,68.34 400.25,161.05 583.08,284.62l0 0z"/>
    <path class="fil37" d="M7412.48 6590.51c-16.17,49.08 -27.95,103 -32.88,161.79 -33.18,-6.43 -59.82,-11.11 -78.61,-14.2 2.13,-17.56 5.23,-34.96 9.24,-52.05 23.55,-25.36 57.68,-58.9 102.25,-95.54l0 0z"/>
    <path class="fil38" d="M7789.08 6378.35c-56.92,104.41 -102.55,245.06 -114.04,432.84 -0.19,3.65 -0.37,7.38 -0.56,11.03 -77.68,-21.6 -148.25,-38.59 -207.96,-51.78 0.09,-2.53 0.28,-4.96 0.45,-7.48 7.4,-98.43 36.46,-188.7 80.39,-268.9 67.95,-41.97 148.42,-82.72 241.72,-115.71z"/>
    <path class="fil39" d="M8511.12 7186.47c-182.83,-123.57 -390.62,-216.28 -583.08,-284.62 -3.71,-183.38 10.58,-351.98 48.52,-491.64 1.03,-3.83 2.06,-7.65 3.2,-11.4 152.63,90.2 351.52,190.77 540.33,234.98 16.45,166.46 11.49,355.64 -8.97,552.68l0 0z"/>
    <path class="fil40" d="M9159.22 6823.25c-4.68,77.48 -15.7,154.13 -32.9,230.77 -21.8,0.83 -46.85,2.25 -74.69,4.67 12.25,-59.07 21.24,-119.53 26.17,-181.13 16.56,-207.21 -50.38,-365.09 -127.85,-475.3 22.71,6.46 44.21,12.81 64.3,18.99 87.01,110.28 154.13,251.97 144.97,402zm-193.48 245.44c-60.65,8.69 -129.09,22.24 -201.33,42.9 16.56,-104.02 23.74,-205.62 17.93,-300.41 -13.17,-216.17 -71.68,-369.85 -140.55,-477.8 64.75,10.66 126.16,23.27 182.8,36.54 90.41,106.75 154.32,239.93 165.82,393.05 7.29,97.57 -3.17,201.61 -24.67,305.72z"/>
    <path class="fil41" d="M8520.08 6633.79c-188.81,-44.21 -387.7,-144.78 -540.32,-234.99 8.04,-27.93 17.07,-53.36 26.98,-76.44 27.97,-4.76 56.75,-8.69 86.39,-11.69 119.26,-12.14 238.33,-11.02 351.71,-1.69 13.36,29.55 25.61,63.1 35.99,101.23 18.49,68.14 31.4,143.19 39.25,223.58l0 0z"/>
    <path class="fil42" d="M7704.94 6208.32c-6.26,3.84 -209.08,128.71 -292.47,382.19 -44.57,36.63 -78.69,70.2 -102.22,95.53 55.12,-239.11 275.25,-434.44 394.69,-477.72l0 0zm128.34 98.61c-15.23,21.69 -30.09,45.43 -44.21,71.43 -93.28,32.98 -173.75,73.73 -241.7,115.71 51.97,-95.36 124.96,-176.57 207.3,-240.98 19.54,13.93 46.26,32.44 78.61,53.84l0 0z"/>
    <path class="fil43" d="M9014.26 6421.25c-20.1,-6.18 -41.6,-12.54 -64.31,-18.99 -91.52,-130.28 -197.69,-194.04 -197.69,-194.04 70.46,25.44 175.98,103.96 262,213.03zm-189.67 -51.32c-56.65,-13.28 -118.05,-25.89 -182.8,-36.55 -116.19,-182.44 -262.1,-234.24 -269.2,-236.66 156.46,31.31 328.82,127.76 452,273.21zm-379.74 -60.94c-113.38,-9.36 -232.46,-10.47 -351.71,1.69 -29.64,2.98 -58.43,6.9 -86.4,11.69 83.76,-197.5 220.04,-225.75 220.04,-225.75l3.84 0c0,0 130.11,26.92 214.23,212.37l0 0zm-360.04 -212.27c-6.73,2.34 -138.73,49.16 -251.54,210.22 -32.32,-21.41 -59.05,-39.92 -78.61,-53.84 102.91,-80.39 220.42,-134.42 330.15,-156.38z"/>
    <polygon class="fil44" points="8228.69,8659.33 8368.75,8659.33 8420.57,8433.23 8036.83,8433.23 8088.65,8659.33 "/>
    <path class="fil45" d="M7699.7 7647.16c26.94,55.73 52.64,105.45 74.77,146.95 37.97,71.03 74.04,131.39 111.26,186.36 10.74,-37.66 24.17,-77.38 40.92,-118.52 -28.89,-66.26 -57.87,-137.4 -85.41,-211.53 -59.92,-161.03 -113.11,-336.17 -142.9,-506.3 -79.17,-58.04 -153.49,-103.08 -218.09,-137.57 37.02,229 134.31,464.8 219.45,640.61z"/>
    <path class="fil46" d="M7573.16 7644.27c15.25,26.64 31.12,53.45 47.57,80.47 76.92,126.1 165.73,242.56 244.79,337.15 2.34,-11.5 5.06,-23.3 8.07,-35.33 -32,-43.94 -63.21,-88.62 -90.05,-130.04 -38.49,-59.24 -94.2,-145.14 -152.23,-250.86 -99.46,-181.32 -205.62,-420.96 -242.46,-684.26 -31.31,-14.22 -58.42,-25.22 -80.49,-33.55 31.79,236.11 122.06,467.79 264.8,716.42l0 0z"/>
    <path class="fil47" d="M7985.55 7474.44c9.99,59.63 21.68,120.2 34.29,180.02 1.23,5.7 2.43,11.39 3.65,17.09 25.22,-40.84 53.94,-82.25 86.54,-123.73 -29.92,-37.81 -61.64,-75.6 -93.69,-112.05 -14.84,-16.81 -29.73,-33.16 -44.76,-49.05 4.37,29.26 8.94,58.51 13.91,87.85l0.06 -0.13z"/>
    <path class="fil48" d="M9051.63 7058.69c-35.62,173 -98.39,333.26 -165.11,470.28 13.48,13.55 26.66,27.06 39.4,40.43 95.1,-176.79 162.69,-345.93 200.4,-515.39 -21.79,0.86 -46.85,2.23 -74.69,4.68zm-287.21 52.91c-13.04,82.6 -31.9,166.71 -54.64,250.1 39.31,35.47 82.33,75.19 124.59,115.96 52.87,-126.26 102.29,-267.74 131.39,-408.98 -60.68,8.71 -129.1,22.26 -201.34,42.92z"/>
    <path class="fil49" d="M8195.93 7448.17c-31.31,33.18 -59.82,66.47 -85.9,99.65 113.74,143.74 198.36,280.39 259.57,394.69 22.26,-85.97 45.34,-181.13 65.98,-278.61 13.38,-62.91 25.71,-126.66 36.26,-189.46 14.78,-87.68 27.12,-175.25 36.55,-261.43 -108.14,56.45 -215.7,132.55 -312.46,235.15l0 0.01zm690.59 80.8c-2.56,5.24 -5.12,10.45 -7.68,15.63 -75.48,152.35 -154.85,274.69 -204.99,351.92 -57.87,89.1 -135.82,193.51 -197.61,273.41 2.25,5.89 4.4,11.4 6.46,16.64 95.68,-104.22 238.33,-272.18 353.96,-461.83 29,-47.6 56.16,-94.51 81.44,-140.89 2.63,-4.83 5.23,-9.64 7.82,-14.45 -12.74,-13.37 -25.92,-26.88 -39.4,-40.44l0 0.01zm-176.74 -167.27l-3 10.88c-73.31,264.75 -184.98,521.25 -273.35,698 9.63,21.01 18.32,40.58 26,58.51 81.61,-97.12 148.87,-195.46 223.49,-334.98 40.99,-76.82 94.12,-181.51 144.78,-300.64l6.67 -15.81c-42.26,-40.77 -85.28,-80.49 -124.59,-115.95l0 -0.01z"/>
    <path class="fil50" d="M8302.38 8300.97c59.65,-61.79 110.7,-116.65 157.05,-171.88 -7.68,-17.93 -16.37,-37.5 -26,-58.51 -62.6,125.25 -113.66,210.47 -131.05,230.39l0 0z"/>
    <path class="fil51" d="M8375.59 8297.33c3.17,-3.09 45.43,-43.73 107.11,-110.76 -2.06,-5.24 -4.21,-10.75 -6.46,-16.64 -55.22,71.53 -97.39,123.47 -100.65,127.4l0 0z"/>
    <path class="fil52" d="M8023.49 7671.55c70.48,329.66 167.11,632.04 167.11,632.04l76.2 0c0,0 49.05,-153.57 102.8,-361.08 -61.21,-114.3 -145.83,-250.95 -259.57,-394.69 -32.6,41.48 -61.32,82.89 -86.54,123.73z"/>
    <path class="fil53" d="M7885.73 7980.47c77.02,114.41 158.22,205.37 269.28,320.5 -25.89,-29.61 -126.09,-203.75 -228.36,-439.02 -16.75,41.14 -30.18,80.86 -40.92,118.52z"/>
    <path class="fil54" d="M7865.53 8061.89c116.27,139.16 211.52,230.76 216.36,235.44 -5.12,-6.35 -110.07,-135.34 -208.3,-270.77 -3.01,12.04 -5.73,23.83 -8.06,35.33z"/>
   </g>
   <g>
    <path class="fil55" d="M4611.01 5571.53l-24.14 0c-31.86,104.46 44.02,253.23 -154.47,401.92 -57.29,42.93 -110.45,77.61 -160.89,117.82 -36.9,29.41 -44.4,33.13 -79.22,65.63 -144.92,135.29 -249.56,258.51 -142.71,488.36 63.65,136.89 114.75,153.9 187,238.01 27.07,31.53 43.89,59.82 88.6,43.08 -0.28,-112.29 -227.15,-390.29 -74.28,-565.23 37.74,-43.18 89.7,-79.19 136.41,-120.17 44.89,-39.38 97.49,-78.1 139.9,-116.93 171.67,-157.21 205.25,-360.46 83.8,-552.49z"/>
    <path class="fil56" d="M5112.97 7674.17c-33.57,37.02 -0.52,8.25 -19.34,61.93 -413.11,124.48 -1056.35,154.73 -1477.03,35.58l196.93 -73.83c2.36,-1.34 5.17,-3.7 7.18,-5.07l12.87 -12.1c-41.27,-52.92 -378.28,-0.96 -401.58,83.1 -78.54,283.43 1272.19,219.13 1614.45,85.07 189.83,-74.35 113.45,-160.82 66.52,-174.68z"/>
    <path class="fil56" d="M4854.58 7019.27c-0.08,-0.01 -798.65,106.58 -1003.42,25.32 23.3,-27.85 68.34,-41.7 104.43,-52.03 94.89,-27.2 88.48,-4.05 111.71,-48.4 -55.72,-41.21 -399.11,1.88 -433.15,85.45 -90.71,222.72 820.22,242.35 1167.71,61.21 17.15,-8.95 51.99,-26.34 57.36,-42.54 18.62,-56.3 7.42,-9.64 -4.64,-29.01z"/>
    <path class="fil55" d="M4842.23 6107.2c-64.78,-45.87 -422.23,185.8 -483.28,295.07 -102.43,183.36 104.28,389.56 119.16,429.15 30.53,81.22 -112.73,312.41 59.8,140.38 320.6,-319.67 -212.19,-389.22 88.54,-670.2l163.4 -137.77c37.49,-28.33 43.5,-12.93 52.38,-56.63z"/>
    <path class="fil56" d="M4758.18 7624.88c-13.01,-26.04 -98.56,-80.15 -123.84,-91.25 -76.97,-33.83 -215.34,73.54 -592.68,0.41l-8.07 -24.75c-2.86,-9.25 2.26,-7.24 -7.94,-24.62 -174.58,-2.1 -288.94,189.29 149.56,229.99 108.67,10.09 210.69,10.7 318.68,-4.64 61.62,-8.75 223.02,-35.87 264.29,-85.14z"/>
    <path class="fil56" d="M4798.32 7359.12c-9.7,-39.17 -26.03,-39.38 -61.07,-61.95 -29.32,-18.88 -43.95,-38.02 -84.84,-33.03 -230.66,28.18 -406.82,94.35 -714.14,25.96 17.82,-39.93 31.66,-15.24 35.43,-65.95 -108.34,-10.74 -251.22,90.76 -124.03,158.14 244.32,129.44 866.62,41.17 948.65,-23.17z"/>
    <path class="fil56" d="M4314.7 8082.43l325.14 0c86.56,-34.16 630.63,-22.98 626.41,-264.87 -39.46,-6.16 -44.47,8.84 -75.04,30.13 -230.38,160.37 -744.86,144.17 -1015.63,140.59 -70.19,-0.94 -347.01,-23.95 -387.73,4.87 29.51,79.4 436.22,64.47 526.85,89.28z"/>
    <path class="fil56" d="M4902.36 6966.47c35.55,23.77 118.32,20.92 170.23,50.98 57.4,33.25 76.95,88.78 28.48,160.93 -106.81,159.01 -228.79,166.72 -232.74,234.48 53.43,26.78 383.03,-85.79 418.05,-261.97 34.15,-171.78 -110.34,-321.41 -338.7,-227.39 -36.7,15.11 -36.09,16.91 -45.32,42.97z"/>
   </g>
  </g>
 </g>
</svg>
